<svg xmlns="http://www.w3.org/2000/svg" x="0px" y="0px" width="100" height="100" viewBox="0,0,256,256">
<g fill="#ffffff" fill-rule="nonzero" stroke="none" stroke-width="1" stroke-linecap="butt" stroke-linejoin="miter" stroke-miterlimit="10" stroke-dasharray="" stroke-dashoffset="0" font-family="none" font-weight="none" font-size="none" text-anchor="none" style="mix-blend-mode: normal"><g transform="scale(2,2)"><path d="M46,2c-1.7,0 -3,1.3 -3,3v22.59961l-19.59961,-11.29883c-0.7,-0.4 -1.50078,-0.50078 -2.30078,-0.30078c-0.8,0.2 -1.39883,0.70039 -1.79883,1.40039l-18,31.19922c-0.4,0.7 -0.50078,1.50078 -0.30078,2.30078c0.2,0.8 0.70039,1.39883 1.40039,1.79883l19.59961,11.30078l-19.59961,11.30078c-0.7,0.4 -1.20039,1.09883 -1.40039,1.79883c-0.2,0.8 -0.09922,1.60078 0.30078,2.30078l18,31.19922c0.4,0.7 1.09883,1.20039 1.79883,1.40039c0.8,0.2 1.60078,0.09922 2.30078,-0.30078l19.59961,-11.29883v22.59961c0,1.7 1.3,3 3,3h36c1.7,0 3,-1.3 3,-3v-22.59961l19.59961,11.29883c0.7,0.4 1.50078,0.50078 2.30078,0.30078c0.8,-0.2 1.39883,-0.70039 1.79883,-1.40039l18,-31.19922c0.4,-0.7 0.50078,-1.50078 0.30078,-2.30078c-0.2,-0.8 -0.70039,-1.39883 -1.40039,-1.79883l-19.59961,-11.30078l19.59961,-11.30078c0.7,-0.4 1.20039,-1.09883 1.40039,-1.79883c0.2,-0.8 0.09922,-1.60078 -0.30078,-2.30078l-18,-31.19922c-0.4,-0.7 -1.09883,-1.20039 -1.79883,-1.40039c-0.8,-0.2 -1.60078,-0.09922 -2.30078,0.30078l-19.59961,11.29883v-22.59961c0,-1.7 -1.3,-3 -3,-3zM49,8h30v24.80078c0,1.1 0.6,2.09961 1.5,2.59961c0.9,0.5 2.1,0.5 3,0l21.5,-12.40039l15,26l-21.5,12.40039c-0.9,0.5 -1.5,1.49961 -1.5,2.59961c0,1.1 0.6,2.09961 1.5,2.59961l21.5,12.40039l-15,26l-21.5,-12.40039c-0.9,-0.5 -2.1,-0.5 -3,0c-0.9,0.5 -1.5,1.49961 -1.5,2.59961v24.80078h-30v-24.80078c0,-1.1 -0.6,-2.09961 -1.5,-2.59961c-0.9,-0.5 -2.1,-0.5 -3,0l-21.5,12.40039l-15,-26l21.5,-12.40039c0.9,-0.5 1.5,-1.49961 1.5,-2.59961c0,-1.1 -0.6,-2.09961 -1.5,-2.59961l-21.5,-12.40039l15,-26l21.5,12.40039c0.9,0.5 2.1,0.5 3,0c0.9,-0.5 1.5,-1.49961 1.5,-2.59961zM64,27c-1.7,0 -3,1.3 -3,3v11.5l-8.40039,4.80078c-2.5,1.4 -3.80039,4.09844 -3.40039,6.89844c0.3,2.8 2.3,5.10039 5,5.90039l13.70117,3.90039c0.6,0.2 0.69922,0.6 0.69922,1c0,0.4 -0.09922,0.8 -0.69922,1l-13.70117,3.90039c-2.7,0.8 -4.7,3.00039 -5,5.90039c-0.3,2.8 1.00039,5.49844 3.40039,6.89844l8.40039,4.80078v11.5c0,1.7 1.3,3 3,3c1.7,0 3,-1.3 3,-3v-8l1.5,0.90039c0.5,0.3 1,0.40039 1.5,0.40039c1,0 1.99961,-0.5 2.59961,-1.5c0.8,-1.4 0.30039,-3.30156 -1.09961,-4.10156l-15.90039,-9.19922c-0.5,-0.3 -0.5,-0.7 -0.5,-1c0,-0.3 0.20078,-0.70078 0.80078,-0.80078l13.69922,-3.89844c3,-0.9 5.09961,-3.60117 5.09961,-6.70117c0,-3.1 -1.99961,-5.89922 -5.09961,-6.69922l-13.69922,-3.90039c-0.6,-0.2 -0.70117,-0.60078 -0.70117,-0.80078c0,-0.2 0,-0.7 0.5,-1l15.90039,-9.19922c1.4,-0.8 1.89961,-2.69961 1.09961,-4.09961c-0.8,-1.4 -2.69961,-1.89961 -4.09961,-1.09961l-1.59961,0.69922v-8c0,-1.7 -1.3,-3 -3,-3z"></path></g></g>
</svg>