<svg xmlns="http://www.w3.org/2000/svg" x="0px" y="0px" width="100" height="100" viewBox="0,0,256,256">
<g fill="#ffffff" fill-rule="nonzero" stroke="none" stroke-width="1" stroke-linecap="butt" stroke-linejoin="miter" stroke-miterlimit="10" stroke-dasharray="" stroke-dashoffset="0" font-family="none" font-weight="none" font-size="none" text-anchor="none" style="mix-blend-mode: normal"><g transform="scale(16,16)"><path d="M12.45508,1.00195c-2.869,0.261 -4.70494,1.53734 -5.83594,2.77734l-1.70312,-2.55664c-0.108,-0.162 -0.29814,-0.2468 -0.49414,-0.2168c-0.193,0.03 -0.34934,0.16942 -0.40234,0.35742c-0.072,0.255 -1.75967,6.25336 -2.01367,8.06836c-0.449,3.208 2.06488,5.36117 2.17188,5.45117c0.091,0.076 0.20427,0.11719 0.32227,0.11719h4c2.167,0 3.22522,-3.41819 3.44922,-4.24219c0.83,-0.838 3.05078,-3.18281 3.05078,-4.25781c0,-0.231 -0.10883,-0.44113 -0.29883,-0.57812c-0.486,-0.35 -1.86794,-0.14911 -3.33594,0.21289c0.51,-0.617 1.52797,-1.57216 3.29297,-2.16016l-0.31445,-0.94922c-1.01,0.336 -1.7882,0.78338 -2.4082,1.23437l1.0293,-2.57422c0.064,-0.161 0.0415,-0.34537 -0.0625,-0.48437c-0.104,-0.14 -0.27827,-0.21522 -0.44727,-0.19922zM11.71875,2.10938l-1.97461,4.47266c-0.506,0.152 -0.98734,0.30436 -1.40234,0.44336l0.31641,0.94922c2.043,-0.681 4.4782,-1.28772 5.2832,-1.26172c-0.268,0.626 -1.43892,2.07759 -2.79492,3.43359c-0.064,0.063 -0.10886,0.14542 -0.13086,0.23242c-0.236,0.94 -1.20462,3.62109 -2.51562,3.62109h-3.80469c-0.36,-0.351 -1.36825,-1.46381 -1.65625,-3.00781c0.533,-0.022 0.96094,-0.45419 0.96094,-0.99219c0,-0.52 -0.4002,-0.93342 -0.9082,-0.98242c0.315,-1.601 1.15066,-4.70603 1.59766,-6.33203l1.27539,1.91211c-0.648,0.916 -0.91445,1.66714 -0.93945,1.74414l0.94922,0.31641c0.055,-0.162 1.32414,-3.75483 5.74414,-4.54883zM8,10c-0.55228,0 -1,0.44772 -1,1c0,0.55228 0.44772,1 1,1c0.55228,0 1,-0.44772 1,-1c0,-0.55228 -0.44772,-1 -1,-1z"></path></g></g>
</svg>